fd_6_states
version=1
nRows=39
nColumns=17
inDegrees=yes

# SIMM Motion File Header:
name fd_6_states
datacolumns 17
datarows 39
otherdata 1
range 0.370694 0.416560
endheader
time	/jointset/r_shoulder/r_shoulder_elev/value	/jointset/r_shoulder/r_shoulder_elev/speed	/jointset/r_elbow/r_elbow_flex/value	/jointset/r_elbow/r_elbow_flex/speed	/forceset/TRIlong/activation	/forceset/TRIlong/fiber_length	/forceset/TRIlat/activation	/forceset/TRIlat/fiber_length	/forceset/TRImed/activation	/forceset/TRImed/fiber_length	/forceset/BIClong/activation	/forceset/BIClong/fiber_length	/forceset/BICshort/activation	/forceset/BICshort/fiber_length	/forceset/BRA/activation	/forceset/BRA/fiber_length
      0.370694	    -26.147694	     12.120867	    156.874893	    381.851270	      0.021299	      0.170029	      0.205164	      0.119585	      0.202382	      0.114607	      0.933343	      0.059326	      0.313484	      0.058428	      0.022265	      0.043480
      0.373265	    -26.105320	     20.897616	    157.867753	    390.492124	      0.021255	      0.169845	      0.205138	      0.119376	      0.202293	      0.114398	      0.941751	      0.059094	      0.316675	      0.058250	      0.022189	      0.043227
      0.376220	    -26.028211	     31.369209	    159.034974	    399.453599	      0.021207	      0.169644	      0.205109	      0.119134	      0.202196	      0.114155	      0.950063	      0.058837	      0.319428	      0.058035	      0.022104	      0.042939
      0.378766	    -25.936459	     40.739279	    160.061177	    406.309595	      0.021167	      0.169479	      0.205086	      0.118921	      0.202117	      0.113943	      0.956237	      0.058628	      0.321211	      0.057850	      0.022034	      0.042694
      0.380066	    -25.880345	     45.641319	    160.591246	    409.486376	      0.021147	      0.169399	      0.205104	      0.118811	      0.202090	      0.113833	      0.959077	      0.058526	      0.322046	      0.057757	      0.021999	      0.042571
      0.380533	    -25.858612	     47.423461	    160.782755	    410.573257	      0.021139	      0.169371	      0.205364	      0.118772	      0.202337	      0.113794	      0.960051	      0.058490	      0.322941	      0.057724	      0.021987	      0.042527
      0.381204	    -25.825919	     50.002911	    161.058825	    412.083727	      0.021129	      0.169331	      0.205769	      0.118714	      0.202732	      0.113736	      0.961408	      0.058439	      0.324281	      0.057677	      0.021969	      0.042464
      0.384560	    -25.636084	     63.225317	    162.453247	    418.705132	      0.021080	      0.169142	      0.207355	      0.118423	      0.204277	      0.113444	      0.967519	      0.058201	      0.329745	      0.057448	      0.021883	      0.042146
      0.387915	    -25.400991	     76.970488	    163.867194	    423.710373	      0.021033	      0.168973	      0.208401	      0.118127	      0.205294	      0.113147	      0.972641	      0.057990	      0.333616	      0.057237	      0.021800	      0.041860
      0.388874	    -25.325294	     80.987511	    164.273855	    424.817561	      0.021020	      0.168928	      0.208629	      0.118042	      0.205515	      0.113061	      0.973947	      0.057935	      0.334500	      0.057182	      0.021778	      0.041770
      0.389663	    -25.260069	     84.323374	    164.609416	    425.620378	      0.021009	      0.168893	      0.208797	      0.117972	      0.205678	      0.112991	      0.974974	      0.057891	      0.335166	      0.057138	      0.021759	      0.041700
      0.389874	    -25.242208	     85.218312	    164.699114	    425.817704	      0.021006	      0.168883	      0.208839	      0.117953	      0.205719	      0.112972	      0.975242	      0.057880	      0.335335	      0.057126	      0.021754	      0.041682
      0.389977	    -25.233362	     85.658780	    164.743210	    425.912020	      0.021005	      0.168879	      0.208859	      0.117944	      0.205738	      0.112963	      0.975372	      0.057875	      0.335417	      0.057121	      0.021752	      0.041673
      0.390011	    -25.230479	     85.801877	    164.757529	    425.942263	      0.021005	      0.168877	      0.208876	      0.117941	      0.205755	      0.112960	      0.975414	      0.057873	      0.335560	      0.057119	      0.021751	      0.041670
      0.390045	    -25.227593	     85.945020	    164.771849	    425.972320	      0.021004	      0.168876	      0.208970	      0.117938	      0.205851	      0.112957	      0.975456	      0.057871	      0.336549	      0.057117	      0.021750	      0.041667
      0.390078	    -25.224701	     86.088208	    164.786170	    426.002193	      0.021004	      0.168875	      0.209069	      0.117935	      0.205951	      0.112954	      0.975498	      0.057869	      0.337587	      0.057115	      0.021749	      0.041664
      0.390246	    -25.210170	     86.804844	    164.857789	    426.148772	      0.021001	      0.168867	      0.209554	      0.117920	      0.206445	      0.112938	      0.975707	      0.057860	      0.342699	      0.057106	      0.021745	      0.041650
      0.391087	    -25.135703	     90.406790	    165.216233	    426.812272	      0.020990	      0.168832	      0.211833	      0.117844	      0.208761	      0.112862	      0.976724	      0.057817	      0.366528	      0.057052	      0.021726	      0.041578
      0.393757	    -24.878802	    102.097614	    166.357858	    428.143235	      0.020956	      0.168730	      0.217657	      0.117596	      0.214671	      0.112613	      0.979678	      0.057693	      0.427203	      0.056846	      0.021666	      0.041356
      0.397016	    -24.521974	    116.960200	    167.753810	    428.069853	      0.020915	      0.168628	      0.222585	      0.117290	      0.219663	      0.112305	      0.982774	      0.057568	      0.480260	      0.056585	      0.021595	      0.041100
      0.398652	    -24.324347	    124.670453	    168.453528	    427.265103	      0.020896	      0.168587	      0.224409	      0.117137	      0.221507	      0.112152	      0.984144	      0.057516	      0.500979	      0.056466	      0.021561	      0.040979
      0.399571	    -24.207838	    129.068513	    168.845612	    426.572002	      0.020885	      0.168567	      0.225285	      0.117051	      0.222392	      0.112066	      0.984863	      0.057490	      0.511279	      0.056406	      0.021542	      0.040912
      0.399963	    -24.156786	    130.963561	    169.013042	    426.221008	      0.020880	      0.168559	      0.225631	      0.117015	      0.222741	      0.112029	      0.985161	      0.057480	      0.515424	      0.056381	      0.021534	      0.040884
      0.400061	    -24.143987	    131.435676	    169.054615	    426.128659	      0.020879	      0.168557	      0.225747	      0.117006	      0.222858	      0.112020	      0.985234	      0.057477	      0.516224	      0.056375	      0.021532	      0.040877
      0.400158	    -24.131143	    131.908310	    169.096179	    426.034250	      0.020878	      0.168555	      0.225941	      0.116997	      0.223056	      0.112011	      0.985307	      0.057475	      0.516511	      0.056369	      0.021530	      0.040870
      0.400344	    -24.106623	    132.807264	    169.175085	    425.849281	      0.020876	      0.168551	      0.226305	      0.116980	      0.223426	      0.111994	      0.985444	      0.057470	      0.517042	      0.056358	      0.021526	      0.040856
      0.401270	    -23.981520	    137.328242	    169.569064	    424.812168	      0.020865	      0.168535	      0.228007	      0.116894	      0.225154	      0.111908	      0.986109	      0.057448	      0.519579	      0.056307	      0.021507	      0.040791
      0.404138	    -23.567294	    151.559230	    170.781632	    420.390870	      0.020833	      0.168500	      0.232212	      0.116627	      0.229417	      0.111640	      0.987982	      0.057394	      0.526331	      0.056186	      0.021451	      0.040598
      0.407981	    -22.947663	    170.981537	    172.381117	    411.507261	      0.020791	      0.168491	      0.235993	      0.116276	      0.233243	      0.111288	      0.990099	      0.057354	      0.533262	      0.056092	      0.021378	      0.040360
      0.409012	    -22.768654	    176.224003	    172.803930	    408.535576	      0.020781	      0.168495	      0.236746	      0.116183	      0.234004	      0.111195	      0.990600	      0.057349	      0.534790	      0.056077	      0.021360	      0.040303
      0.409415	    -22.697168	    178.274862	    172.968448	    407.304956	      0.020776	      0.168497	      0.237017	      0.116147	      0.234278	      0.111159	      0.990789	      0.057348	      0.535355	      0.056072	      0.021352	      0.040281
      0.409935	    -22.603739	    180.919746	    173.179910	    405.660897	      0.020771	      0.168501	      0.237347	      0.116101	      0.234612	      0.111113	      0.991027	      0.057347	      0.536058	      0.056067	      0.021343	      0.040253
      0.410005	    -22.591125	    181.273793	    173.208156	    405.435927	      0.020770	      0.168501	      0.237396	      0.116095	      0.234660	      0.111107	      0.991058	      0.057347	      0.536286	      0.056066	      0.021342	      0.040249
      0.410031	    -22.586521	    181.402839	    173.218449	    405.353640	      0.020770	      0.168502	      0.237444	      0.116093	      0.234709	      0.111104	      0.991070	      0.057347	      0.537092	      0.056066	      0.021341	      0.040248
      0.410056	    -22.581914	    181.531883	    173.228739	    405.271201	      0.020770	      0.168502	      0.237496	      0.116091	      0.234762	      0.111102	      0.991081	      0.057347	      0.537990	      0.056066	      0.021341	      0.040247
      0.410183	    -22.558830	    182.177066	    173.280157	    404.856716	      0.020768	      0.168503	      0.237756	      0.116079	      0.235022	      0.111091	      0.991138	      0.057346	      0.542444	      0.056064	      0.021339	      0.040240
      0.410818	    -22.442178	    185.402815	    173.536448	    402.726549	      0.020762	      0.168510	      0.238993	      0.116023	      0.236265	      0.111034	      0.991416	      0.057346	      0.563770	      0.056055	      0.021327	      0.040206
      0.413689	    -21.888863	    200.046978	    174.677616	    391.834676	      0.020734	      0.168563	      0.243558	      0.115769	      0.240845	      0.110780	      0.992571	      0.057351	      0.644238	      0.055986	      0.021278	      0.040062
      0.416560	    -21.293268	    214.867944	    175.784410	    378.758578	      0.020706	      0.168655	      0.246811	      0.115521	      0.244104	      0.110532	      0.993569	      0.057364	      0.705697	      0.055907	      0.021230	      0.039932
